<mxfile host="app.diagrams.net" modified="2022-07-22T03:38:41.165Z" agent="5.0 (Macintosh; Intel Mac OS X 10_15_7) AppleWebKit/537.36 (KHTML, like Gecko) Chrome/102.0.0.0 Safari/537.36" etag="gZPmcgeSmWUnwT_VyUsk" version="20.1.4" type="github">
  <diagram id="jbDLTtWELFEQYUGQmwVX" name="第 1 页">
    <mxGraphModel dx="1426" dy="794" grid="1" gridSize="10" guides="1" tooltips="1" connect="1" arrows="1" fold="1" page="1" pageScale="1" pageWidth="827" pageHeight="1169" math="0" shadow="0">
      <root>
        <mxCell id="0" />
        <mxCell id="1" parent="0" />
        <mxCell id="KI7jU_s6pXPfOrlxF21A-1" value="点击广告下载链接" style="ellipse;whiteSpace=wrap;html=1;" vertex="1" parent="1">
          <mxGeometry x="110" y="30" width="120" height="40" as="geometry" />
        </mxCell>
        <mxCell id="KI7jU_s6pXPfOrlxF21A-2" value="" style="html=1;shadow=0;dashed=0;align=center;verticalAlign=middle;shape=mxgraph.arrows2.arrow;dy=1;dx=40;direction=south;notch=0;" vertex="1" parent="1">
          <mxGeometry x="155" y="70" width="30" height="100" as="geometry" />
        </mxCell>
        <mxCell id="KI7jU_s6pXPfOrlxF21A-3" value="本机浏览器webull官网下载链接" style="ellipse;whiteSpace=wrap;html=1;" vertex="1" parent="1">
          <mxGeometry x="80" y="180" width="190" height="60" as="geometry" />
        </mxCell>
        <mxCell id="KI7jU_s6pXPfOrlxF21A-4" value="带上gclid/&amp;nbsp;client_id" style="whiteSpace=wrap;html=1;" vertex="1" parent="1">
          <mxGeometry x="115" y="90" width="120" height="30" as="geometry" />
        </mxCell>
        <mxCell id="KI7jU_s6pXPfOrlxF21A-5" value="同时需要产生一个动态下载链接：https://download.webull.com/desktop/webull desktop_6.0_us_gclid.exe" style="whiteSpace=wrap;html=1;fillColor=#f8cecc;strokeColor=#b85450;" vertex="1" parent="1">
          <mxGeometry x="280" y="180" width="500" height="60" as="geometry" />
        </mxCell>
        <mxCell id="KI7jU_s6pXPfOrlxF21A-6" value="下载" style="html=1;shadow=0;dashed=0;align=center;verticalAlign=middle;shape=mxgraph.arrows2.arrow;dy=0.6;dx=40;direction=south;notch=0;" vertex="1" parent="1">
          <mxGeometry x="140" y="240" width="70" height="100" as="geometry" />
        </mxCell>
        <mxCell id="KI7jU_s6pXPfOrlxF21A-7" value="文件在本地用户下载目录或者任意目录" style="ellipse;whiteSpace=wrap;html=1;" vertex="1" parent="1">
          <mxGeometry x="80" y="340" width="185" height="80" as="geometry" />
        </mxCell>
        <mxCell id="KI7jU_s6pXPfOrlxF21A-8" value="文件名可能为：webull desktop_6.0_us_gclid.exe" style="whiteSpace=wrap;html=1;fillColor=#f8cecc;strokeColor=#b85450;" vertex="1" parent="1">
          <mxGeometry x="280" y="360" width="320" height="60" as="geometry" />
        </mxCell>
        <mxCell id="KI7jU_s6pXPfOrlxF21A-10" value="双击安装客户端" style="rhombus;whiteSpace=wrap;html=1;shadow=0;dashed=0;" vertex="1" parent="1">
          <mxGeometry x="115" y="430" width="115" height="80" as="geometry" />
        </mxCell>
        <mxCell id="KI7jU_s6pXPfOrlxF21A-12" value="安装程序启动" style="ellipse;whiteSpace=wrap;html=1;" vertex="1" parent="1">
          <mxGeometry x="115" y="524.5" width="120" height="60" as="geometry" />
        </mxCell>
        <mxCell id="KI7jU_s6pXPfOrlxF21A-13" value="安装程序需要检测安装包文件名，分析其中的gclib，然后写入到本地临时指定的目录" style="whiteSpace=wrap;html=1;fillColor=#f8cecc;strokeColor=#b85450;" vertex="1" parent="1">
          <mxGeometry x="280" y="440" width="440" height="60" as="geometry" />
        </mxCell>
        <mxCell id="KI7jU_s6pXPfOrlxF21A-14" value="启动桌面客户端" style="rhombus;whiteSpace=wrap;html=1;" vertex="1" parent="1">
          <mxGeometry x="110" y="590" width="135" height="80" as="geometry" />
        </mxCell>
        <mxCell id="KI7jU_s6pXPfOrlxF21A-16" value="读取本地临时指定目录，获取&amp;nbsp;client_id，然后通过接口进行上报" style="whiteSpace=wrap;html=1;fillColor=#f8cecc;strokeColor=#b85450;" vertex="1" parent="1">
          <mxGeometry x="280" y="600" width="440" height="60" as="geometry" />
        </mxCell>
      </root>
    </mxGraphModel>
  </diagram>
</mxfile>
